# xmcd CD database file
#
# Track frame offsets:
#	150
#	20748
#	34515
#	50354
#	69222
#	94617
#	123853
#	150911
#	167678
#	186884
#	209416
#	230973
#
# Disc length: 3374 seconds
#
# Revision: 0
# Processed by: cddbd v1.5.1PL0 Copyright (c) Steve Scherf et al.
# Submitted via: CDex 1.51
#
DISCID=950d2c0c
DTITLE=Ben Sidran - Jazz Side
DYEAR=2004
DGENRE=Jazz
TTITLE0=Like a boat on the water
TTITLE1=solar
TTITLE2=Little sherry
TTITLE3=It didn't all comme true
TTITLE4=Walk pretty
TTITLE5=Blue minor
TTITLE6=Zambia
TTITLE7=Walk night in
TTITLE8=She steps into a dream
TTITLE9=Turn to the music
TTITLE10=Steady Eddie
TTITLE11=Enivre d'amour
EXTD=YEAR: 2004
EXTT0=
EXTT1=
EXTT2=
EXTT3=
EXTT4=
EXTT5=
EXTT6=
EXTT7=
EXTT8=
EXTT9=
EXTT10=
EXTT11=
PLAYORDER=
